<?xml version="1.0" encoding="UTF-8"?>
<svg id="Layer_1" data-name="Layer 1" xmlns="http://www.w3.org/2000/svg" viewBox="0 0 207.13 198.13">
  <defs>
    <style>
      .cls-1 {
        fill: #fff;
      }

      .cls-1, .cls-2 {
        stroke-width: 0px;
      }

      .cls-2 {
        fill: #e6e7eb;
      }
    </style>
  </defs>
  <g>
    <path class="cls-2" d="M30.11,95.38c-1.33-1.03-2.69-1.55-4.09-1.55-1.53,0-2.74.47-3.64,1.4-.9.93-1.35,2.23-1.35,3.89s.45,2.84,1.35,3.74,2.11,1.35,3.64,1.35,3.06-.37,4.59-1.1c1.53-.73,2.86-1.8,3.99-3.19-1.66-2-3.16-3.5-4.49-4.54ZM63.72,95.18c-.93-.9-2.16-1.35-3.69-1.35-1.73,0-3.43.45-5.09,1.35-1.66.9-3.09,2.21-4.29,3.94,1.4,1.66,2.85,2.93,4.34,3.79,1.5.86,3.18,1.3,5.04,1.3,1.46,0,2.68-.47,3.64-1.4.96-.93,1.45-2.2,1.45-3.79s-.47-2.94-1.4-3.84Z"/>
    <polygon class="cls-2" points="207.13 0 103.71 198.13 86.15 198.13 78.47 142.65 148.39 0 207.13 0"/>
  </g>
  <path class="cls-1" d="M26.02,104.2c-1.53,0-2.74-.45-3.64-1.35s-1.35-2.14-1.35-3.74.45-2.96,1.35-3.89c.9-.93,2.11-1.4,3.64-1.4,1.4,0,2.76.52,4.09,1.55,1.33,1.03,2.82,2.54,4.49,4.54-1.13,1.4-2.46,2.46-3.99,3.19-1.53.73-3.06,1.1-4.59,1.1Z"/>
  <path class="cls-1" d="M54.99,102.91c-1.49-.86-2.94-2.13-4.34-3.79,1.2-1.73,2.63-3.04,4.29-3.94,1.66-.9,3.36-1.35,5.09-1.35,1.53,0,2.76.45,3.69,1.35.93.9,1.4,2.18,1.4,3.84s-.48,2.86-1.45,3.79c-.97.93-2.18,1.4-3.64,1.4-1.86,0-3.54-.43-5.04-1.3Z"/>
  <path class="cls-1" d="M86.15,198.13h-52.7l-13.78-81.62c1.59.3,3.31.45,5.15.45,3.53,0,6.78-.75,9.78-2.24,2.99-1.5,5.52-3.54,7.58-6.13,5.59,5.58,12.1,8.38,19.55,8.38,3.39,0,6.51-.71,9.38-2.14,1.15-.58,2.21-1.26,3.17-2.06l4.14,30,.06-.12,7.67,55.49Z"/>
  <path class="cls-1" d="M70.13,82.64c-2.55-.99-5.52-1.48-8.9-1.48-3.66,0-7.03.81-10.12,2.44-3.09,1.63-5.64,3.81-7.63,6.53-2.53-2.79-5.28-4.98-8.28-6.58-2.99-1.6-6.65-2.39-10.97-2.39-3.39,0-6.48.72-9.28,2.14-.27.14-.54.29-.81.44L0,0h58.74l11.39,82.64Z"/>
  <path class="cls-1" d="M58.74,0l11.43,82.66s-.03-.01-.05-.02L58.74,0Z"/>
  <path class="cls-1" d="M78.47,142.65l-.06.12-4.14-30s.04-.02.06-.04l4.14,29.92Z"/>
</svg>