<svg xmlns="http://www.w3.org/2000/svg" width="1200" height="630" viewBox="0 0 1200 630">
  <rect width="1200" height="630" fill="#E5E7EB"/>
  <g transform="translate(600,315)">
    <circle r="220" fill="#FFCC00" opacity="0.2"/>
    <g transform="translate(-32,-32)" >
      <path d="M32 32c-4-6-9-10-14-10C11 22 6 27 6 32s5 10 12 10c5 0 10-4 14-10z" fill="#003366"/>
      <path d="M32 32c4 6 9 10 14 10 7 0 12-5 12-10s-5-10-12-10c-5 0-10 4-14 10z" fill="#FFCC00"/>
      <path d="M20 12l12 20 12-20" stroke="#111827" stroke-width="3" stroke-linecap="round" stroke-linejoin="round"/>
    </g>
  </g>
  <text x="600" y="520" text-anchor="middle" font-family="Inter, system-ui" font-size="36" fill="#111827">Vono24 — Your value your promise accessible anytime</text>
</svg>
