<?xml version="1.0" encoding="UTF-8"?>
<svg id="Layer_1" data-name="Layer 1" xmlns="http://www.w3.org/2000/svg" viewBox="0 0 587.53 562.02">
  <defs>
    <style>
      .cls-1 {
        fill: #101727;
      }

      .cls-1, .cls-2, .cls-3 {
        stroke-width: 0px;
      }

      .cls-2 {
        fill: #036;
      }

      .cls-3 {
        fill: #013366;
      }
    </style>
  </defs>
  <rect width="100%" height="100%" fill="#FFCC00"/>
  <g>
    <path class="cls-1" d="M85.4,270.54c-3.78-2.92-7.64-4.39-11.6-4.39-4.34,0-7.78,1.33-10.33,3.96-2.55,2.65-3.82,6.33-3.82,11.04s1.27,8.06,3.82,10.61,5.99,3.82,10.33,3.82,8.67-1.04,13.01-3.11c4.34-2.08,8.11-5.1,11.32-9.06-4.72-5.66-8.96-9.94-12.73-12.87ZM180.75,269.97c-2.65-2.54-6.13-3.82-10.47-3.82-4.91,0-9.72,1.28-14.43,3.82-4.72,2.55-8.77,6.28-12.17,11.18,3.96,4.72,8.07,8.3,12.31,10.75,4.25,2.45,9.01,3.68,14.29,3.68,4.15,0,7.59-1.32,10.33-3.96,2.73-2.64,4.1-6.23,4.1-10.75s-1.32-8.35-3.96-10.9Z"/>
    <polygon class="cls-1" points="587.53 0 294.17 562.02 244.36 562.02 222.59 404.63 420.92 0 587.53 0"/>
  </g>
  <path class="cls-2" d="M73.8,295.58c-4.34,0-7.78-1.27-10.33-3.82s-3.82-6.08-3.82-10.61,1.27-8.39,3.82-11.04c2.55-2.63,5.99-3.96,10.33-3.96,3.96,0,7.82,1.47,11.6,4.39,3.77,2.93,8.01,7.21,12.73,12.87-3.21,3.96-6.98,6.98-11.32,9.06-4.34,2.07-8.68,3.11-13.01,3.11Z"/>
  <path class="cls-2" d="M155.99,291.9c-4.24-2.45-8.35-6.03-12.31-10.75,3.4-4.9,7.45-8.63,12.17-11.18,4.71-2.54,9.52-3.82,14.43-3.82,4.34,0,7.82,1.28,10.47,3.82,2.64,2.55,3.96,6.18,3.96,10.9s-1.37,8.11-4.1,10.75c-2.74,2.64-6.18,3.96-10.33,3.96-5.28,0-10.04-1.23-14.29-3.68Z"/>
  <path class="cls-2" d="M244.36,562.02H94.87l-39.08-231.52c4.52.86,9.39,1.29,14.61,1.29,10,0,19.24-2.12,27.73-6.36,8.49-4.25,15.65-10.05,21.5-17.4,15.85,15.84,34.33,23.76,55.46,23.76,9.62,0,18.48-2.02,26.6-6.08,3.27-1.64,6.27-3.58,9-5.84l11.73,85.1.17-.34,21.77,157.39Z"/>
  <path class="cls-3" d="M198.92,234.42c-7.24-2.8-15.66-4.2-25.25-4.2-10.37,0-19.94,2.31-28.71,6.93-8.77,4.63-15.99,10.8-21.65,18.53-7.17-7.92-14.99-14.14-23.48-18.67-8.49-4.53-18.87-6.79-31.13-6.79-9.62,0-18.39,2.03-26.31,6.08-.78.4-1.54.82-2.29,1.26L0,0h166.62l32.3,234.42Z"/>
  <path class="cls-2" d="M166.62,0l32.43,234.47s-.08-.03-.13-.05L166.62,0Z"/>
  <path class="cls-2" d="M222.59,404.63l-.17.34-11.73-85.1s.11-.07.16-.12l11.74,84.88Z"/>
</svg>